HIERARCHY
ROOT hip
{
	OFFSET 0.000000 0.000000 0.000000 
	CHANNELS 6 Xposition Yposition Zposition Xrotation Zrotation Yrotation
	JOINT abdomen
	{
		OFFSET 0.000000 3.402643 0.000000 
		CHANNELS 3 Xrotation Zrotation Yrotation
		JOINT chest
		{
			OFFSET 0.000000 8.438565 -0.680529 
			CHANNELS 3 Xrotation Zrotation Yrotation
			JOINT neck
			{
				OFFSET 0.000000 10.207942 -0.272212 
				CHANNELS 3 Xrotation Zrotation Yrotation
				JOINT head
				{
					OFFSET 0.000000 3.130431 0.000000 
					CHANNELS 3 Xrotation Zrotation Yrotation
					End Site
					{
						OFFSET 0.000000 3.130435 0.000000 
					}
				}
			}
			JOINT lCollar
			{
				OFFSET 3.470700 6.669187 -0.816635 
				CHANNELS 3 Yrotation Zrotation Xrotation
				JOINT lShldr
				{
					OFFSET 3.198488 0.000000 0.000000 
					CHANNELS 3 Zrotation Yrotation Xrotation
					JOINT lForeArm
					{
						OFFSET 10.139888 0.000000 0.000000 
						CHANNELS 3 Yrotation Zrotation Xrotation
						JOINT lHand
						{
							OFFSET 8.370511 0.000000 0.000000 
							CHANNELS 3 Zrotation Yrotation Xrotation
							End Site
							{
								OFFSET 4.083176 0.000000 0.000000 
							}
						}
					}
				}
			}
			JOINT rCollar
			{
				OFFSET -3.470700 6.669187 -0.816635 
				CHANNELS 3 Yrotation Zrotation Xrotation
				JOINT rShldr
				{
					OFFSET -3.198488 0.000000 0.000000 
					CHANNELS 3 Zrotation Yrotation Xrotation
					JOINT rForeArm
					{
						OFFSET -10.139888 0.000000 0.000000 
						CHANNELS 3 Yrotation Zrotation Xrotation
						JOINT rHand
						{
							OFFSET -8.370511 0.000000 0.000000 
							CHANNELS 3 Zrotation Yrotation Xrotation
							End Site
							{
								OFFSET -4.083176 0.000000 0.000000 
							}
						}
					}
				}
			}
		}
	}
	JOINT lThigh
	{
		OFFSET 5.308129 -1.633274 1.361059 
		CHANNELS 3 Xrotation Zrotation Yrotation
		JOINT lShin
		{
			OFFSET -2.041588 -20.007561 0.000000 
			CHANNELS 3 Xrotation Zrotation Yrotation
			JOINT lFoot
			{
				OFFSET 0.000000 -19.190928 -1.224953 
				CHANNELS 3 Xrotation Yrotation Zrotation
				End Site
				{
					OFFSET 0.000000 -2.449906 4.627600 
				}
			}
		}
	}
	JOINT rThigh
	{
		OFFSET -5.308129 -1.633274 1.361059 
		CHANNELS 3 Xrotation Zrotation Yrotation
		JOINT rShin
		{
			OFFSET 2.041588 -20.007561 0.000000 
			CHANNELS 3 Xrotation Zrotation Yrotation
			JOINT rFoot
			{
				OFFSET 0.000000 -19.190928 -1.224953 
				CHANNELS 3 Xrotation Yrotation Zrotation
				End Site
				{
					OFFSET 0.000000 -2.449906 4.627600 
				}
			}
		}
	}
}
MOTION
Frames: 15
Frame Time: 0.016667
29.862871 62.039459 16.843925 -3.309300 10.675900 -94.166801 -19.283600 -3.856690 1.171880 19.462799 -0.810399 -0.111482 32.976856 -2.475663 13.313992 17.394100 -3.694840 6.000210 2.000000 -2.000000 0.000000 95.322601 173.807007 -7.396530 36.143002 -0.325254 0.080694 0.064646 -0.066180 -157.507996 -2.000000 2.000000 0.000000 -91.823799 -169.046005 2.853040 -34.580399 0.327411 0.077598 -0.056213 0.024056 -145.544998 -14.071078 -12.027262 -0.719928 26.307287 2.526321 2.108343 -15.350545 -5.158447 -3.741285 -33.533825 3.519872 -6.505325 25.814219 -2.088905 -2.277984 -10.734343 -4.335308 1.489646 
28.718592 61.984638 16.906948 -3.497760 10.644700 -93.761803 -19.309000 -3.243450 0.721800 19.697300 -0.156232 -0.232032 33.537720 -4.003128 12.725377 17.212099 -4.619670 5.903670 2.000000 -2.000000 0.000000 94.502403 173.593002 -8.051290 34.521801 -0.327491 0.077539 0.053667 -0.053073 -156.238007 -2.000000 2.000000 0.000000 -92.536797 -169.320007 2.521690 -34.473000 0.327557 0.077387 -0.056415 0.025353 -146.014008 -13.696993 -12.230930 -0.358345 28.204388 2.617966 2.175303 -13.919540 -7.648074 -4.330966 -32.949066 3.609393 -4.822481 27.107075 -2.129121 -2.347079 -10.625303 -7.778025 0.702576 
27.754395 61.851292 17.024452 -2.372850 10.381900 -94.078499 -19.359900 -2.800510 1.179900 19.189199 -1.171540 0.096318 33.359142 -6.287683 11.198982 16.314501 -5.922620 5.549670 2.000000 -2.000000 0.000000 95.117699 173.729996 -7.855680 33.135101 -0.329333 0.074790 0.052444 -0.049445 -154.871002 -2.000000 2.000000 0.000000 -91.667801 -169.822006 1.087400 -33.808998 0.328446 0.076076 -0.056271 0.024435 -145.682007 -15.180857 -10.932480 1.680982 34.132690 2.570333 2.529679 -12.604513 -8.194237 -4.007777 -32.432232 5.104434 -3.063221 28.660967 -2.098991 -2.443600 -10.521159 -7.821423 0.721371 
26.791319 61.756477 17.092754 -1.906900 10.492400 -94.214104 -19.271500 -2.252760 1.583550 19.237900 -1.357060 0.382791 33.375668 -7.798258 9.685836 15.848400 -7.069830 5.087550 2.000000 -2.000000 0.000000 95.498299 173.561996 -7.152920 33.545300 -0.328795 0.075608 0.052461 -0.049497 -154.889999 -2.000000 2.000000 0.000000 -91.589897 -170.457993 0.278457 -34.072601 0.328095 0.076597 -0.056503 0.025893 -146.209000 -18.217382 -9.396116 4.725936 41.532822 2.257858 3.004509 -7.301260 -11.166904 -3.040180 -32.161270 5.568917 -2.738381 30.115461 -2.082560 -2.544650 -11.212536 -7.677289 0.614854 
25.817009 61.649761 17.041191 -2.453050 10.478900 -93.102303 -19.164600 -1.260250 0.809918 19.345501 1.005630 0.134994 34.612667 -9.526335 8.246831 15.727000 -8.450560 4.584220 2.000000 -2.000000 0.000000 93.828400 173.279999 -7.495340 34.707401 -0.327239 0.077903 0.051995 -0.048038 -154.343994 -2.000000 2.000000 0.000000 -93.689697 -170.766998 1.705020 -35.010101 0.326826 0.078440 -0.056734 0.027269 -146.707001 -21.497349 -8.722102 6.446877 48.473965 1.835364 3.408740 1.214355 -12.483275 -0.521827 -32.026680 4.528927 -3.483373 32.215893 -2.069836 -2.660878 -12.667083 -8.071661 0.170294 
24.830904 61.588196 16.949635 -0.505489 9.843370 -92.624199 -18.953899 -0.196172 0.727914 19.276899 1.474240 0.269816 35.653797 -10.449328 6.702700 15.621200 -9.822720 4.068160 2.000000 -2.000000 0.000000 93.496399 173.298996 -7.592960 36.191799 -0.325185 0.080788 0.051873 -0.047647 -154.197006 -2.000000 2.000000 0.000000 -95.096298 -170.820007 4.283290 -36.474998 0.324785 0.081277 -0.057650 0.032133 -148.473999 -24.818613 -5.514526 5.844697 56.404488 1.378069 3.786849 5.738330 -11.898810 1.034966 -29.984369 6.245069 -5.174597 31.911411 -2.072468 -2.639195 -12.825299 -8.482699 0.012228 
23.909168 61.481022 16.892792 1.385490 9.323490 -92.958900 -18.852900 0.026736 1.238960 19.091801 0.380735 0.566436 37.593021 -12.744078 4.043584 15.562200 -12.680000 3.192960 2.000000 -2.000000 0.000000 95.126900 172.945999 -6.823440 38.594101 -0.321704 0.085341 0.053273 -0.051936 -155.807999 -2.000000 2.000000 0.000000 -94.295898 -171.315994 5.163450 -37.148800 0.323821 0.082565 -0.057494 0.031355 -148.190994 -28.305208 -2.496194 4.664304 63.096939 0.897688 4.082007 2.873272 -8.829256 0.498396 -28.119652 8.178303 -5.985931 31.461042 -2.067633 -2.628386 -13.283952 -7.953842 0.065823 
22.985298 61.388123 16.844486 2.567990 8.604760 -93.414299 -18.589800 0.140974 1.126480 19.091801 -0.048812 0.538349 39.145298 -18.466253 0.159776 14.195600 -17.221500 2.147700 2.000000 -2.000000 0.000000 -85.214302 7.712410 170.744995 41.436001 -0.317345 0.090534 0.064388 -0.065488 -157.244003 -2.000000 2.000000 0.000000 -94.511200 -172.350006 5.625050 -37.754299 0.322943 0.083711 -0.056472 0.025704 -146.139999 -31.441807 -0.376319 3.648044 67.953545 0.518775 4.274496 -0.785132 -4.089579 0.217519 -26.309736 9.600802 -5.881851 31.604603 -2.101474 -2.605158 -13.974030 -7.583740 0.068948 
22.030760 61.350937 16.798428 2.476180 8.146780 -93.359200 -18.503799 0.108647 0.817844 19.062500 0.351443 0.371693 41.329796 -23.124372 -2.484678 14.084200 -23.605600 1.409800 2.000000 -2.000000 0.000000 -85.233597 8.510320 169.522003 43.691799 -0.313704 0.094498 0.066856 -0.061980 -159.645996 -2.000000 2.000000 0.000000 -94.667397 -172.996002 4.747780 -38.457401 0.321907 0.085032 -0.056144 0.023597 -145.378998 -34.665947 -0.081000 2.145164 70.242889 0.247383 4.382963 -1.512827 -1.674352 0.410428 -24.986311 9.597030 -5.412996 32.287086 -2.145098 -2.611973 -15.550541 -7.641188 -0.240102 
21.048363 61.333523 16.793373 3.639870 8.099080 -93.509598 -18.502701 0.177219 1.000730 19.160101 -0.341695 0.486845 40.195255 -31.620836 -7.444447 9.389760 -34.177399 0.438477 2.000000 -2.000000 0.000000 -84.930298 8.390270 168.302002 44.170399 -0.312912 0.095320 0.068122 -0.064919 -160.789001 -2.000000 2.000000 0.000000 -94.179100 -172.947998 4.640240 -39.765999 0.319938 0.087455 -0.057151 0.029583 -147.546997 -38.097786 1.070809 -0.578476 70.795624 0.135515 4.441320 -1.607599 -2.198708 0.369746 -23.428547 10.828988 -5.524888 31.600851 -2.145149 -2.587303 -16.199369 -7.811981 -0.458723 
19.964636 61.340153 16.896837 4.056960 7.364520 -94.566299 -18.355600 0.369939 1.069960 19.150299 -0.556473 0.550770 37.200619 -34.474678 -8.096805 6.552120 -46.703098 0.225013 2.000000 -2.000000 0.000000 -85.203300 8.680920 167.304993 44.326599 -0.312652 0.095587 0.069830 -0.068649 -162.253998 -2.000000 2.000000 0.000000 -94.970100 -172.585007 5.264320 -41.006302 0.318020 0.089709 -0.057722 0.032481 -148.600998 -39.484364 1.228827 -2.297386 68.277580 0.270051 4.386756 -2.290539 -2.175633 0.282437 -21.109880 11.361870 -4.989376 31.111969 -2.235919 -2.524025 -16.413115 -7.976096 -0.566159 
19.050766 61.243092 17.257441 6.309410 7.853140 -95.207497 -18.548300 0.524590 1.399070 19.080200 -2.870140 0.786744 40.131393 -31.579432 -6.905930 9.440430 -32.489101 0.859010 2.000000 -2.000000 0.000000 -84.265999 8.925440 167.470993 44.355900 -0.312603 0.095637 0.070313 -0.069660 -162.654007 -2.000000 2.000000 0.000000 -95.009300 -172.171997 6.366790 -42.285599 0.315992 0.091990 -0.059390 0.039701 -151.248001 -41.790874 2.685655 -5.433887 64.258308 0.522080 4.261196 -2.480922 -1.453295 0.370775 -19.817789 13.099175 -6.400939 29.789150 -2.209785 -2.456867 -16.424419 -6.085101 -0.013375 
17.879414 61.392841 17.019958 4.707440 7.416580 -97.251099 -18.397200 -0.046998 1.959410 19.510799 -2.382420 0.951644 37.201576 -25.972670 -3.285677 9.894320 -21.100401 1.978500 2.000000 -2.000000 0.000000 -83.640800 9.548510 166.639008 44.072701 -0.313074 0.095153 0.068523 -0.065818 -161.139999 -2.000000 2.000000 0.000000 -94.706802 -172.024002 7.225790 -42.353901 0.315882 0.092111 -0.070909 0.055791 -153.591995 -40.525669 2.327135 -5.107915 56.120895 1.012389 3.968284 -1.554520 -1.740961 0.551344 -17.814177 12.343471 -3.303074 29.718563 -2.331804 -2.400914 -17.761921 -6.731555 -0.337616 
16.682001 61.466084 17.138361 5.428110 7.554260 -99.108299 -18.594999 0.616114 1.615410 19.599100 -1.806390 0.879780 36.117451 -14.410159 2.670562 13.682900 -13.060300 3.007480 2.000000 -2.000000 0.000000 -84.802299 11.213500 164.487000 43.770000 -0.313575 0.094632 0.064849 -0.066717 -157.712997 -2.000000 2.000000 0.000000 83.564301 -8.184590 -171.376999 -41.943802 0.316539 0.091385 -0.060249 0.042925 -152.438995 -39.118279 3.452456 -7.180140 47.073982 1.519393 3.509323 0.159149 -3.468942 0.735944 -15.780925 13.058608 -2.247474 28.433321 -2.418551 -2.299669 -18.316652 -5.714029 -0.020546 
15.438643 61.380707 17.264969 6.150830 7.797210 -101.008003 -18.864100 1.370760 1.264820 19.677601 -1.122910 0.818007 35.250847 -4.427255 8.159119 16.748899 -7.610180 4.166140 2.000000 -2.000000 0.000000 -85.682098 13.215000 164.317001 43.516102 -0.313993 0.094194 0.064888 -0.066820 -157.751999 -2.000000 2.000000 0.000000 81.904198 -8.790930 -171.007004 -41.963299 0.316508 0.091420 -0.059811 0.041315 -151.843994 -37.508675 4.358697 -10.666922 39.289818 1.843819 3.087464 3.846506 -3.835793 1.320364 -14.328019 13.577378 -2.842111 28.200644 -2.482294 -2.260375 -17.295555 -5.374321 0.215276 
